# xmcd
#
# Track frame offsets:
#	150
#	13360
#	25770
#	43560
#	56635
#	68410
#	85685
#	98835
#	111795
#	126235
#	138785
#	150960
#	164205
#	181105
#	194020
#	207160
#
# Disc length: 2939 seconds
#
# Revision: 3
# Processed by: cddbd v1.5.2PL0 Copyright (c) Steve Scherf et al.
# Submitted via: audiograbber 1.83.01
#
DISCID=d20b7910
DTITLE=Nashville Cats And Voices - Everything From Jesus To Jack Daniels
DYEAR=0
DGENRE=Country
TTITLE0=atkins - Everything From Jesus To Jack Daniels
TTITLE1=jennings - bowman - Just To Satisfy You
TTITLE2=rogers - Dixieland Delight
TTITLE3=löhmer - Interstate 265
TTITLE4=barnes and barnes - Way Down Deep
TTITLE5=blackwell - I'm Gonna Hire A Wino To Decorate Our Home
TTITLE6=overstreet - Same Ole Me
TTITLE7=craig - Following The Feeling
TTITLE8=allen - brooks - I'm Only In It For The Love
TTITLE9=dillon - hargrove - Tennessee Whiskey
TTITLE10=jordan - Josê Quervo
TTITLE11=anderson - delmore - Swingin'
TTITLE12=hanner - Lord I Hope This Day Is Good
TTITLE13=clark - bettis - Slow Hand
TTITLE14=smith - jones - I Wouldn't Change You If I Could
TTITLE15=gallagher - lyle - Stay Young
EXTD=Country CD4
EXTT0=
EXTT1=
EXTT2=
EXTT3=
EXTT4=
EXTT5=
EXTT6=
EXTT7=
EXTT8=
EXTT9=
EXTT10=
EXTT11=
EXTT12=
EXTT13=
EXTT14=
EXTT15=
PLAYORDER=
